#!OML:ASF F:\VICON\USERDATA\INSTALL\rory3\rory3.ASF
:FULLY-SPECIFIED
:DEGREES
86
root 0.215825 18.3446 14.0599 3.33011 -0.245358 -5.86939
lowerback 14.9585 0.872995 5.74927
upperback 1.38512 2.09969 -0.0584092
thorax -6.70771 0.859319 -3.74398
lowerneck -6.04753 -0.505206 -0.497633
upperneck -9.06946 -0.601675 0.72883
head -1.80478 -0.29205 0.30808
rclavicle 1.13307e-014 9.14409e-015
rhumerus -28.1916 18.7371 -89.7407
rradius 105.726
rwrist -5.65132
rhand -37.0413 37.7014
rfingers 7.12502
rthumb -10.1145 7.96451
lclavicle 1.13307e-014 9.14409e-015
lhumerus -55.9066 -5.26564 93.2908
lradius 108.225
lwrist 25.9914
lhand -34.628 10.6612
lfingers 7.12502
lthumb -7.78576 40.4978
rfemur 12.0692 3.05512 32.2164
rtibia 64.0247
rfoot 33.9157 -17.1011
rtoes 22.2939
lfemur -31.4621 0.0924439 -15.1632
ltibia 26.1446
lfoot 9.11802 -2.71874
ltoes -22.9733
87
root 0.207002 18.2403 14.59 2.93725 -0.373175 -5.25211
lowerback 15.1972 0.873215 4.76655
upperback 1.50698 1.94007 -0.145926
thorax -6.75481 0.808666 -3.255
lowerneck -5.86574 -0.425683 -0.512674
upperneck -8.77023 -0.497189 0.740204
head -1.73953 -0.240304 0.313838
rclavicle 3.18055e-015 3.26007e-014
rhumerus -29.099 18.7057 -89.9657
rradius 104.421
rwrist -6.03928
rhand -37.3962 37.5875
rfingers 7.12502
rthumb -10.4568 7.86755
lclavicle 3.18055e-015 3.26007e-014
lhumerus -54.4571 -6.19557 93.6779
lradius 108.536
lwrist 26.4967
lhand -33.8629 10.2784
lfingers 7.12502
lthumb -7.04725 40.141
rfemur 10.1979 2.084 30.6393
rtibia 69.0842
rfoot 33.0503 -17.1735
rtoes 24.115
lfemur -30.1522 0.877026 -16.2748
ltibia 26.8999
lfoot 9.59725 -5.02671
ltoes -16.3247
88
root 0.215182 18.1383 15.137 2.94569 -0.133564 -4.40463
lowerback 14.8119 0.707507 3.84754
upperback 1.54487 1.53803 -0.317831
thorax -6.55549 0.642319 -2.82543
lowerneck -5.80034 -0.272635 -0.503567
upperneck -8.32555 -0.29926 0.686969
head -1.60914 -0.141421 0.294949
rclavicle 5.86415e-015 1.51076e-014
rhumerus -30.1581 18.7853 -90.2844
rradius 103.181
rwrist -6.06949
rhand -37.9767 35.8675
rfingers 7.12502
rthumb -11.0168 6.17658
lclavicle 5.86415e-015 1.51076e-014
lhumerus -53.0657 -7.0467 94.0539
lradius 109.107
lwrist 27.0477
lhand -32.4443 9.8188
lfingers 7.12502
lthumb -5.67775 39.7227
rfemur 7.89377 0.803221 28.5704
rtibia 73.9279
rfoot 32.2105 -16.5667
rtoes 23.6293
lfemur -29.535 1.30899 -17.7337
ltibia 28.4032
lfoot 7.63918 -9.65336
ltoes -11.621
89
root 0.223631 18.0349 15.6808 2.48119 -0.186133 -3.66046
lowerback 15.147 0.619014 3.0299
upperback 1.61802 1.28193 -0.535419
thorax -6.69469 0.534483 -2.54958
lowerneck -5.75859 -0.114493 -0.499389
upperneck -7.79951 -0.0824735 0.863321
head -1.45011 -0.0356236 0.348094
rclavicle -1.59028e-014 -1.59028e-014
rhumerus -31.6702 18.4301 -90.6775
rradius 102.03
rwrist -5.83249
rhand -37.8306 35.2301
rfingers 7.12502
rthumb -10.8759 5.53172
lclavicle -1.59028e-014 -1.59028e-014
lhumerus -51.7589 -8.04524 94.3073
lradius 109.882
lwrist 27.4858
lhand -32.0525 10.8429
lfingers 7.12502
lthumb -5.29939 40.7567
rfemur 6.15001 -0.160356 26.6931
rtibia 78.4745
rfoot 31.3131 -15.641
rtoes 23.0886
lfemur -28.3026 1.67983 -18.8397
ltibia 30.5157
lfoot 4.39417 -12.0045
ltoes -7.28725
90
root 0.220514 17.911 16.2002 1.69076 -0.81317 -3.40727
lowerback 16.1244 0.735666 2.43312
upperback 1.7376 1.35489 -0.58064
thorax -7.11441 0.578362 -2.29633
lowerneck -5.97689 -0.114151 -0.555938
upperneck -7.09234 -0.0789145 0.977496
head -1.1913 -0.0327714 0.390141
rclavicle 1.63003e-014 1.59028e-015
rhumerus -33.3645 17.7769 -90.9363
rradius 101.079
rwrist -5.40996
rhand -37.7115 35.0947
rfingers 7.12502
rthumb -10.761 5.39031
lclavicle 1.63003e-014 1.59028e-015
lhumerus -50.2578 -9.15568 94.5859
lradius 110.71
lwrist 27.7701
lhand -33.352 13.4891
lfingers 7.12502
lthumb -6.554 43.3677
rfemur 4.71631 -0.494374 25.5081
rtibia 82.8314
rfoot 30.377 -15.0465
rtoes 22.8576
lfemur -26.5918 2.36151 -19.1847
ltibia 32.9239
lfoot 0.571106 -12.2693
ltoes -5.25156
91
root 0.219454 17.7795 16.7313 0.467935 -3.37467 -3.39521
lowerback 17.1238 1.50868 1.72646
upperback 2.13746 2.25725 -0.58512
thorax -7.20928 1.0352 -2.12238
lowerneck -5.99465 -0.199589 -0.581969
upperneck -6.88401 -0.192547 1.01953
head -1.12234 -0.0895357 0.405837
rclavicle -2.06736e-014 -4.77083e-015
rhumerus -34.7679 17.0513 -91.1671
rradius 100.093
rwrist -4.66401
rhand -38.0237 34.9664
rfingers 7.12502
rthumb -11.0621 5.27788
lclavicle -2.06736e-014 -4.77083e-015
lhumerus -48.2066 -10.4885 94.7823
lradius 111.217
lwrist 27.9259
lhand -32.3947 10.6005
lfingers 7.12502
lthumb -5.62984 40.5057
rfemur 3.74784 1.22442 24.8166
rtibia 87.0486
rfoot 29.3324 -14.7272
rtoes 22.5492
lfemur -24.0132 4.39891 -19.1221
ltibia 35.4422
lfoot -3.8407 -12.06
ltoes -3.97338
92
root 0.239116 17.6848 17.2481 0.583375 -2.52525 -2.97301
lowerback 16.9454 1.02098 1.54503
upperback 2.21859 1.56848 -0.722712
thorax -7.05626 0.708271 -2.00398
lowerneck -5.76023 -0.168897 -0.695721
upperneck -7.19514 -0.139162 1.17313
head -1.25906 -0.0629775 0.473972
rclavicle 4.17448e-015 -6.75868e-015
rhumerus -35.8488 16.352 -91.2654
rradius 98.9072
rwrist -4.01395
rhand -38.0829 35.5789
rfingers 7.12502
rthumb -11.1192 5.89346
lclavicle 4.17448e-015 -6.75868e-015
lhumerus -45.636 -11.8285 94.8195
lradius 111.529
lwrist 28.0379
lhand -32.8941 12.9046
lfingers 7.12502
lthumb -6.11198 42.7964
rfemur 0.951736 -0.366273 23.3576
rtibia 91.04
rfoot 28.3521 -14.1035
rtoes 23.8127
lfemur -23.8263 3.31217 -19.8578
ltibia 37.6054
lfoot -6.36845 -12.0525
ltoes 0.218037
93
root 0.244413 17.5667 17.7241 0.993549 -1.43683 -2.14942
lowerback 17.1874 0.511416 0.776937
upperback 1.99462 0.744778 -0.894819
thorax -7.47362 0.322815 -1.5731
lowerneck -5.50713 -0.0616287 -0.890834
upperneck -7.50577 0.0254392 1.43451
head -1.40171 0.0197508 0.589981
rclavicle -1.08338e-014 8.34896e-015
rhumerus -37.2322 15.6982 -91.43
rradius 97.9043
rwrist -3.70717
rhand -37.9932 36.2936
rfingers 7.12502
rthumb -11.0328 6.60353
lclavicle -1.08338e-014 8.34896e-015
lhumerus -43.2488 -13.1269 94.7776
lradius 112.162
lwrist 28.5328
lhand -34.5515 10.5682
lfingers 7.12502
lthumb -7.71185 40.4076
rfemur -2.79832 -2.24805 21.4031
rtibia 95.2227
rfoot 27.9782 -13.0914
rtoes 24.8168
lfemur -23.4764 1.98149 -21.1834
ltibia 39.3591
lfoot -9.53988 -10.4204
ltoes -0.310674
94
root 0.249543 17.4862 18.2233 0.495562 -1.1932 -1.23167
lowerback 18.1678 0.350393 -0.225386
upperback 2.10247 0.3204 -1.09631
thorax -7.91275 0.14292 -1.13059
lowerneck -5.58193 0.0372941 -1.03719
upperneck -7.64339 0.174047 1.61854
head -1.43587 0.0954517 0.672738
rclavicle 1.56046e-014 -1.59028e-015
rhumerus -38.5051 14.8421 -91.3702
rradius 97.269
rwrist -3.76349
rhand -37.8841 36.8812
rfingers 7.12502
rthumb -10.9275 7.18556
lclavicle 1.56046e-014 -1.59028e-015
lhumerus -40.8357 -14.4542 94.6076
lradius 112.95
lwrist 29.3324
lhand -33.9794 10.2115
lfingers 7.12502
lthumb -7.1597 40.0704
rfemur -5.29504 -3.29101 19.4419
rtibia 98.7703
rfoot 27.3949 -12.0138
rtoes 24.6086
lfemur -21.3853 1.48937 -22.566
ltibia 40.4807
lfoot -12.6765 -8.36522
ltoes -0.15196
